# xmcd
#
# Track frame offsets: 
#        150
#        25965
#        52785
#        70842
#        93320
#        108160
#
# Disc length: 1679 seconds
#
# Revision: 0
# Processed by: cddbd v1.5.1PL2 Copyright (c) Steve Scherf et al.
# Submitted via: ExactAudioCopy v0.95b4
#
DISCID=40068d06
DTITLE=Andy - City of Angels [CD2]
DYEAR=1900
DGENRE=Persian
TTITLE0=Yalla (DJ Alligator)
TTITLE1=Cheshmayeh Naz (DJ Kam)
TTITLE2=Entezar (Nami)
TTITLE3=Mardeh Tanha (Nami)
TTITLE4=Genank Hayastan
TTITLE5=Eem Seras
EXTD=
EXTT0=
EXTT1=
EXTT2=
EXTT3=
EXTT4=
EXTT5=
PLAYORDER=
